<svg width="9" height="18" viewBox="0 0 9 18" fill="none" xmlns="http://www.w3.org/2000/svg">
<path d="M0.909975 17.67C0.719975 17.67 0.529976 17.6 0.379976 17.45C0.0899756 17.16 0.0899756 16.68 0.379976 16.39L6.89998 9.87C7.37998 9.39001 7.37998 8.61 6.89998 8.13L0.379976 1.61C0.0899756 1.32 0.0899756 0.840004 0.379976 0.550004C0.669976 0.260004 1.14998 0.260004 1.43998 0.550004L7.95998 7.07C8.46998 7.58 8.75998 8.27 8.75998 9C8.75998 9.73001 8.47998 10.42 7.95998 10.93L1.43998 17.45C1.28998 17.59 1.09998 17.67 0.909975 17.67Z" fill="white"/>
</svg>
