<svg width="22" height="19" viewBox="0 0 22 19" fill="none" xmlns="http://www.w3.org/2000/svg">
<path d="M20.6305 13.4508H6.67345L7.37423 12.0234L19.018 12.0023C19.4117 12.0023 19.7492 11.7211 19.8195 11.332L21.432 2.30625C21.4742 2.06953 21.4109 1.82578 21.2563 1.64062C21.1798 1.5495 21.0844 1.4761 20.9768 1.42551C20.8691 1.37492 20.7518 1.34835 20.6328 1.34766L5.82032 1.29844L5.69376 0.703125C5.61407 0.323437 5.27189 0.046875 4.88282 0.046875H1.26173C1.04231 0.046875 0.831868 0.134041 0.676711 0.289198C0.521554 0.444355 0.434387 0.654794 0.434387 0.874219C0.434387 1.09364 0.521554 1.30408 0.676711 1.45924C0.831868 1.6144 1.04231 1.70156 1.26173 1.70156H4.21251L4.76564 4.33125L6.12736 10.9242L4.37423 13.7859C4.28319 13.9088 4.22835 14.0547 4.21593 14.2071C4.2035 14.3596 4.23398 14.5124 4.30392 14.6484C4.44454 14.9273 4.72814 15.1031 5.0422 15.1031H6.51407C6.20029 15.5199 6.0308 16.0275 6.03126 16.5492C6.03126 17.8758 7.10939 18.9539 8.43595 18.9539C9.76251 18.9539 10.8406 17.8758 10.8406 16.5492C10.8406 16.0266 10.6672 15.518 10.3578 15.1031H14.1336C13.8198 15.5199 13.6503 16.0275 13.6508 16.5492C13.6508 17.8758 14.7289 18.9539 16.0555 18.9539C17.382 18.9539 18.4602 17.8758 18.4602 16.5492C18.4602 16.0266 18.2867 15.518 17.9774 15.1031H20.6328C21.0875 15.1031 21.4602 14.7328 21.4602 14.2758C21.4588 14.0566 21.3708 13.8468 21.2154 13.6923C21.0599 13.5377 20.8497 13.4509 20.6305 13.4508V13.4508ZM6.16486 2.92969L19.6602 2.97422L18.3383 10.3758L7.73751 10.3945L6.16486 2.92969ZM8.43595 17.2898C8.02814 17.2898 7.69532 16.957 7.69532 16.5492C7.69532 16.1414 8.02814 15.8086 8.43595 15.8086C8.84376 15.8086 9.17657 16.1414 9.17657 16.5492C9.17657 16.7456 9.09854 16.934 8.95965 17.0729C8.82076 17.2118 8.63237 17.2898 8.43595 17.2898V17.2898ZM16.0555 17.2898C15.6477 17.2898 15.3149 16.957 15.3149 16.5492C15.3149 16.1414 15.6477 15.8086 16.0555 15.8086C16.4633 15.8086 16.7961 16.1414 16.7961 16.5492C16.7961 16.7456 16.7181 16.934 16.5792 17.0729C16.4403 17.2118 16.2519 17.2898 16.0555 17.2898V17.2898Z" fill="#111111"/>
</svg>
